:SAMPLES-PER-SECOND 30
:FULLY-SPECIFIED
:DEGREES
17
root  -59.992 40.4528 -23.6414 -1.15555 -3.37921 4.27013
RightUpLeg  -17.1699 -9.62152 -8.97887
RightLeg  2.62651 -3.8504 3.1293
RightFoot  8.30276 -0.344212 2.32103
RightToes  0.00048216 0.542163 -0.142577
Spine  21.2233 -1.77955 -3.76399
Spine1  7.37497 -2.98669 1.30519
HEad  21.5748 0.034638 -4.17633
LeftShoulder1  8.61215 -12.4007 -47.2461
LeftArm  -18.3531 1.34093 -27.8214
LeftForeArm  28.8446 -12.5491 -3.18796
LeftHand  -0.25398 0.0180481 5.50724
RightShoulder  5.7755 10.0646 36.5695
RightArm  -16.1782 -16.3715 37.9158
RightForeArm  3.99992 8.41391 5.14819
RightHand  -3.76888 11.6388 -25.7325
LeftUpLeg  3.04096 5.54688 -2.92458
LeftLeg  10.2727 18.0261 -2.14444
LeftFoot  -12.3896 0.075949 0.170614
LeftToes  1.06246e-005 4.65855e-005 -8.185e-006
18
root  -60.2431 40.4554 -23.1002 -0.102805 -2.35333 4.32042
RightUpLeg  -17.6495 -10.0281 -8.89277
RightLeg  3.14711 -3.51592 3.49539
RightFoot  10.6165 -0.152342 1.1599
RightToes  0.00048216 0.542163 -0.142577
Spine  22.0834 -2.25664 -2.32273
Spine1  7.64057 -3.26456 1.24912
HEad  20.5366 -0.72794 -4.69291
LeftShoulder1  9.26875 -13.1106 -48.7045
LeftArm  -17.6655 -0.210131 -28.0094
LeftForeArm  29.4007 -14.0255 -3.3213
LeftHand  -0.25398 0.0180481 5.50724
RightShoulder  5.76263 10.178 36.1339
RightArm  -14.2649 -16.0423 38.2826
RightForeArm  5.04061 9.81183 5.65452
RightHand  -3.71008 11.6013 -25.404
LeftUpLeg  2.88807 5.42558 -2.75483
LeftLeg  9.92864 16.9026 -1.94904
LeftFoot  -12.4025 0.069245 -0.558481
LeftToes  1.06246e-005 4.65855e-005 -8.185e-006
19
root  -60.4995 40.448 -22.5594 1.06686 -1.55146 3.94379
RightUpLeg  -18.717 -10.514 -8.45824
RightLeg  4.61841 -3.96431 3.93782
RightFoot  11.3343 0.0817739 -0.0260213
RightToes  0.00048216 0.542163 -0.142577
Spine  23.3931 -2.92853 0.0520756
Spine1  7.234 -3.34099 0.507653
HEad  19.4047 -1.56734 -5.06689
LeftShoulder1  9.6699 -13.6233 -49.2969
LeftArm  -16.9286 -1.08348 -28.5198
LeftForeArm  29.2365 -15.7259 -3.37507
LeftHand  -0.25398 0.0180481 5.50724
RightShoulder  5.79234 10.3002 35.9798
RightArm  -12.7065 -15.1567 37.9383
RightForeArm  4.52335 10.5599 5.9842
RightHand  -3.70574 11.4351 -25.6136
LeftUpLeg  2.21041 6.0475 -2.23792
LeftLeg  10.449 15.5879 -1.17113
LeftFoot  -12.6446 0.0689074 -0.646292
LeftToes  1.06246e-005 4.65855e-005 -8.185e-006
20
root  -60.7865 40.4227 -22.0491 2.29953 -1.04971 3.30319
RightUpLeg  -20.3758 -11.0729 -7.37241
RightLeg  6.98652 -4.2028 4.04396
RightFoot  10.2234 0.381125 -1.63848
RightToes  0.00048216 0.542163 -0.142577
Spine  25.236 -3.54573 2.42309
Spine1  6.23801 -3.35102 0.00127575
HEad  18.546 -1.79148 -5.78542
LeftShoulder1  9.6126 -13.7554 -48.6231
LeftArm  -16.4403 -1.3278 -30.0752
LeftForeArm  29.2152 -17.3913 -3.32665
LeftHand  -0.25398 0.0180481 5.50724
RightShoulder  5.83828 10.4152 35.9635
RightArm  -11.6073 -13.5189 37.0436
RightForeArm  2.9443 10.6965 6.28394
RightHand  -3.676 11.0495 -25.9801
LeftUpLeg  0.906031 8.17379 -1.48477
LeftLeg  11.9966 13.0121 0.123857
LeftFoot  -13.3485 0.0615103 -0.983115
LeftToes  1.06246e-005 4.65855e-005 -8.185e-006
21
root  -61.1153 40.3601 -21.6052 3.56699 -0.356685 2.71745
RightUpLeg  -22.2173 -11.9028 -6.02828
RightLeg  9.57314 -4.17662 3.93167
RightFoot  8.65117 0.597617 -3.04617
RightToes  0.00048216 0.542163 -0.142577
Spine  27.3961 -3.9638 3.99952
Spine1  5.25659 -3.55361 0.673205
HEad  17.1752 -1.8489 -6.64588
LeftShoulder1  9.38467 -13.7737 -47.4075
LeftArm  -16.0028 -1.74404 -31.9238
LeftForeArm  29.2084 -18.2443 -3.31946
LeftHand  -0.25398 0.0180481 5.50724
RightShoulder  5.84995 10.5107 35.7653
RightArm  -11.0656 -11.069 36.0053
RightForeArm  1.23296 10.6804 6.51961
RightHand  -3.61845 10.7918 -25.9789
LeftUpLeg  -1.53682 11.4094 -0.845761
LeftLeg  15.2019 8.95975 1.85113
LeftFoot  -13.9643 0.0189903 -2.85507
LeftToes  1.06246e-005 4.65855e-005 -8.185e-006
22
root  -61.4541 40.2572 -21.2673 4.88138 0.937256 2.19257
RightUpLeg  -23.9955 -12.7936 -4.91984
RightLeg  11.8212 -4.76534 3.89128
RightFoot  7.41818 0.636184 -3.53507
RightToes  0.00048216 0.542163 -0.142577
Spine  29.6819 -4.40577 5.34901
Spine1  4.56912 -3.97256 2.0815
HEad  14.514 -2.25212 -6.94513
LeftShoulder1  9.35354 -14.0613 -46.456
LeftArm  -15.2594 -2.92437 -32.985
LeftForeArm  28.8649 -18.0688 -3.41909
LeftHand  -0.25398 0.0180481 5.50724
RightShoulder  5.88452 10.668 35.5496
RightArm  -11.1282 -7.892 34.8744
RightForeArm  -0.496213 10.7698 6.64674
RightHand  -3.6033 10.8286 -25.8206
LeftUpLeg  -5.72188 12.0285 -0.342667
LeftLeg  20.9706 7.67573 3.7349
LeftFoot  -13.4501 -0.00756372 -4.85298
LeftToes  1.06246e-005 4.65855e-005 -8.185e-006
23
root  -61.7764 40.1625 -21.0404 6.20056 2.44656 1.72946
RightUpLeg  -25.6522 -13.5946 -4.00953
RightLeg  13.472 -5.73916 3.86661
RightFoot  6.38619 0.583294 -3.4565
RightToes  0.00048216 0.542163 -0.142577
Spine  32.2583 -4.98302 7.04427
Spine1  3.98338 -4.2661 2.99716
HEad  11.8745 -2.62982 -7.28219
LeftShoulder1  9.52028 -14.663 -45.6945
LeftArm  -14.3259 -4.91448 -33.2895
LeftForeArm  28.6241 -17.2958 -3.60934
LeftHand  -0.25398 0.0180481 5.50724
RightShoulder  6.00246 10.9386 35.5865
RightArm  -11.4322 -4.12453 33.4892
RightForeArm  -2.76933 10.9996 6.75058
RightHand  -3.64754 10.8926 -26.0241
LeftUpLeg  -11.1001 10.4966 0.144877
LeftLeg  28.3959 9.47956 5.85549
LeftFoot  -11.4698 0.0592327 -4.56964
LeftToes  1.06246e-005 4.65855e-005 -8.185e-006
24
root  -62.084 40.0964 -20.8992 7.44671 3.49436 1.50431
RightUpLeg  -27.3244 -14.4164 -3.01483
RightLeg  14.7494 -6.0661 3.69605
RightFoot  5.41876 0.578386 -3.673
RightToes  0.00048216 0.542163 -0.142577
Spine  35.3419 -5.41604 8.58219
Spine1  3.42029 -4.19374 3.33863
HEad  9.49117 -3.08613 -7.90421
LeftShoulder1  9.65596 -15.3121 -44.7065
LeftArm  -13.6162 -7.72356 -33.6393
LeftForeArm  28.8153 -16.2248 -3.86269
LeftHand  -0.25398 0.0180481 5.50724
RightShoulder  6.09174 11.209 35.4329
RightArm  -11.674 0.369229 32.1423
RightForeArm  -5.13776 11.0787 6.91843
RightHand  -3.73715 10.9162 -26.5928
LeftUpLeg  -16.7059 10.4427 -0.00451401
LeftLeg  35.1275 9.84966 7.69448
LeftFoot  -9.57047 0.101419 -2.75469
LeftToes  1.06246e-005 4.65855e-005 -8.185e-006
25
root  -62.395 40.08 -20.8057 8.69831 4.02475 1.86387
RightUpLeg  -28.9853 -15.3937 -2.17627
RightLeg  15.5571 -5.60212 3.43993
RightFoot  4.86771 0.645274 -4.2913
RightToes  0.00048216 0.542163 -0.142577
Spine  38.7789 -5.43584 9.06639
Spine1  3.26857 -3.94259 3.8677
HEad  5.20114 -4.2414 -7.50794
LeftShoulder1  9.71865 -15.9091 -43.554
LeftArm  -13.4602 -11.5191 -34.3048
LeftForeArm  29.0709 -14.8219 -4.16669
LeftHand  -0.25398 0.0180481 5.50724
RightShoulder  6.00432 11.3548 34.4514
RightArm  -12.2207 6.00709 31.277
RightForeArm  -6.13181 10.2693 7.10084
RightHand  -3.86078 11.139 -27.0776
LeftUpLeg  -21.754 11.3327 -1.21999
LeftLeg  38.7792 8.30343 7.4557
LeftFoot  -9.07534 0.0917143 -1.85378
LeftToes  1.06246e-005 4.65855e-005 -8.185e-006
26
root  -62.7041 40.1001 -20.7398 10.1601 4.44958 2.70093
RightUpLeg  -30.7923 -16.5814 -1.58557
RightLeg  15.98 -4.90133 3.19186
RightFoot  4.75309 0.718197 -4.84317
RightToes  0.00048216 0.542163 -0.142577
Spine  42.0432 -5.306 8.94633
Spine1  3.86475 -3.73565 4.44
HEad  0.335376 -5.34505 -7.25986
LeftShoulder1  9.83496 -16.6827 -42.3096
LeftArm  -13.969 -16.2856 -34.9692
LeftForeArm  29.3608 -13.0924 -4.44675
LeftHand  -0.25398 0.0180481 5.50724
RightShoulder  5.80294 11.446 32.8692
RightArm  -13.3627 12.8263 30.7312
RightForeArm  -5.46066 8.18263 7.09558
RightHand  -3.92771 11.4049 -27.1116
LeftUpLeg  -26.2056 12.6876 -3.45423
LeftLeg  38.6278 6.12571 5.6129
LeftFoot  -9.47242 0.0949901 -2.35434
LeftToes  1.06246e-005 4.65855e-005 -8.185e-006
27
root  -62.9927 40.1088 -20.6931 11.9893 4.87997 3.58381
RightUpLeg  -33.2368 -18.2558 -0.587713
RightLeg  16.5152 -3.67793 2.92501
RightFoot  4.6947 0.782723 -5.32119
RightToes  0.00048216 0.542163 -0.142577
Spine  44.9585 -5.50113 9.21676
Spine1  4.83442 -3.498 4.09446
HEad  -4.77106 -6.45007 -6.63462
LeftShoulder1  9.94216 -17.7516 -40.4789
LeftArm  -14.8776 -21.7156 -35.5342
LeftForeArm  30.2164 -11.1645 -4.5746
LeftHand  -0.25398 0.0180481 5.50724
RightShoulder  5.64152 11.6645 31.2395
RightArm  -14.7092 20.0268 30.1169
RightForeArm  -4.42678 5.5513 6.74449
RightHand  -3.7792 11.1476 -26.5185
LeftUpLeg  -30.338 14.4105 -6.36695
LeftLeg  35.5534 5.14183 4.28799
LeftFoot  -9.83263 0.0986066 -3.02417
LeftToes  1.06246e-005 4.65855e-005 -8.185e-006
28
root  -63.2561 40.0761 -20.6499 14.1714 5.07552 4.34198
RightUpLeg  -36.6263 -20.5693 1.50337
RightLeg  17.4119 -1.25784 2.55975
RightFoot  4.55972 0.879612 -6.06474
RightToes  0.00048216 0.542163 -0.142577
Spine  47.9268 -6.05278 9.80712
Spine1  5.42861 -3.08955 2.69822
HEad  -9.80594 -7.50707 -5.45272
LeftShoulder1  9.8708 -18.8685 -37.9302
LeftArm  -15.5641 -27.5485 -35.9397
LeftForeArm  31.308 -9.12024 -4.55115
LeftHand  -0.25398 0.0180481 5.50724
RightShoulder  5.51738 12.0863 29.41
RightArm  -16.5789 26.7287 29.3889
RightForeArm  -3.36237 3.24055 6.23025
RightHand  -3.40595 10.2649 -25.303
LeftUpLeg  -34.3641 16.6971 -9.87504
LeftLeg  30.7568 5.35541 3.77693
LeftFoot  -9.6126 0.113708 -3.62844
LeftToes  1.06246e-005 4.65855e-005 -8.185e-006
29
root  -63.4834 39.9661 -20.5904 16.4949 4.87119 4.77103
RightUpLeg  -40.8101 -22.7925 4.73903
RightLeg  18.7621 1.8342 2.06864
RightFoot  4.30584 0.994877 -7.01273
RightToes  0.00048216 0.542163 -0.142577
Spine  50.8331 -6.60977 10.4614
Spine1  5.82664 -2.41573 0.969495
HEad  -14.884 -8.51461 -4.04411
LeftShoulder1  9.79299 -20.0174 -35.5036
LeftArm  -15.9278 -33.8617 -35.7782
LeftForeArm  31.4179 -6.98111 -4.46099
LeftHand  -0.25398 0.0180481 5.50724
RightShoulder  5.37809 12.6106 27.332
RightArm  -19.0902 33.0279 28.0199
RightForeArm  -2.71609 1.20477 5.64202
RightHand  -3.00391 9.33268 -23.8019
LeftUpLeg  -38.3756 19.5123 -13.8115
LeftLeg  25.2955 4.7291 2.79053
LeftFoot  -7.70863 0.192191 -4.48344
LeftToes  1.06246e-005 4.65855e-005 -8.185e-006
30
root  -63.6542 39.7442 -20.5001 18.7702 4.33464 4.49957
RightUpLeg  -45.1736 -23.5327 8.17037
RightLeg  20.719 3.85033 1.61357
RightFoot  3.74642 1.06883 -7.85901
RightToes  0.00048216 0.542163 -0.142577
Spine  53.125 -6.89484 11.4578
Spine1  6.74174 -1.308 -0.596362
HEad  -20.0529 -9.6383 -2.85531
LeftShoulder1  10.0418 -21.5437 -33.9494
LeftArm  -16.9836 -40.5779 -34.9175
LeftForeArm  30.5013 -4.9961 -4.25
LeftHand  -0.25398 0.0180481 5.50724
RightShoulder  5.20893 12.9727 25.4999
RightArm  -22.4947 39.4094 24.9901
RightForeArm  -2.8323 -0.993397 5.02534
RightHand  -2.66802 8.60784 -22.2965
LeftUpLeg  -42.4395 22.165 -17.5479
LeftLeg  20.6657 2.47043 1.35878
LeftFoot  -3.74002 0.248389 -3.60962
LeftToes  1.06246e-005 4.65855e-005 -8.185e-006
31
root  -63.7753 39.4209 -20.3787 21.0926 3.74749 3.67945
RightUpLeg  -49.2122 -22.2069 10.3385
RightLeg  23.3596 3.54421 1.42062
RightFoot  2.81091 1.08525 -8.56558
RightToes  0.00048216 0.542163 -0.142577
Spine  55.6285 -7.13312 12.416
Spine1  6.88605 -0.148427 -1.83114
HEad  -24.606 -10.2506 -2.20505
LeftShoulder1  10.4373 -22.8387 -33.4589
LeftArm  -18.9606 -46.8237 -33.1404
LeftForeArm  29.1192 -3.78122 -3.95741
LeftHand  -0.25398 0.0180481 5.50724
RightShoulder  5.08821 13.3249 24.0561
RightArm  -26.5675 45.4596 20.6356
RightForeArm  -2.97741 -3.00497 4.47119
RightHand  -2.27561 7.64138 -20.4769
LeftUpLeg  -46.6407 23.1811 -20.0506
LeftLeg  18.8517 0.699967 0.584104
LeftFoot  -0.0258044 -0.0821182 0.837622
LeftToes  1.06246e-005 4.65855e-005 -8.185e-006
